<svg width="17" height="20" viewBox="0 0 17 20" fill="none" xmlns="http://www.w3.org/2000/svg">
<path fill-rule="evenodd" clip-rule="evenodd" d="M5 2.1999C5 1.20579 5.80589 0.399902 6.8 0.399902H9.8C10.7941 0.399902 11.6 1.20579 11.6 2.1999V19.9999H5V2.1999ZM6.8 1.9999C6.68954 1.9999 6.6 2.08945 6.6 2.1999V18.3999H10V2.1999C10 2.08945 9.91046 1.9999 9.8 1.9999H6.8Z" fill="#868E96"/>
<path fill-rule="evenodd" clip-rule="evenodd" d="M0 10.1999C0 9.20579 0.805887 8.3999 1.8 8.3999H5.8V9.9999H1.8C1.68954 9.9999 1.6 10.0894 1.6 10.1999V18.1999C1.6 18.3104 1.68954 18.3999 1.8 18.3999H5.8V19.9999H1.8C0.805887 19.9999 0 19.194 0 18.1999V10.1999Z" fill="#868E96"/>
<path fill-rule="evenodd" clip-rule="evenodd" d="M14.8 5.9999H10.8V4.3999H14.8C15.7941 4.3999 16.6 5.20579 16.6 6.1999V18.1999C16.6 19.194 15.7941 19.9999 14.8 19.9999H10.8V18.3999H14.8C14.9105 18.3999 15 18.3104 15 18.1999V6.1999C15 6.08945 14.9105 5.9999 14.8 5.9999Z" fill="#868E96"/>
</svg>
