<svg width="20" height="20" viewBox="0 0 20 20" fill="none" xmlns="http://www.w3.org/2000/svg">
<path fill-rule="evenodd" clip-rule="evenodd" d="M9.45762 0.206198C9.76691 -0.0687325 10.233 -0.0687325 10.5423 0.206198L19.726 8.3695C19.9003 8.52442 20 8.74646 20 8.97964V19.1838C20 19.6346 19.6345 20.0001 19.1837 20.0001H13.0612C12.6104 20.0001 12.2449 19.6346 12.2449 19.1838V14.0817C12.2449 12.7978 11.2838 11.8368 9.99996 11.8368C8.7161 11.8368 7.75505 12.7978 7.75505 14.0817V19.1837C7.75505 19.6346 7.38957 20.0001 6.93872 20.0001H0.816239C0.365392 20.0001 -9.15527e-05 19.6346 -9.15527e-05 19.1838V8.97964C-9.15527e-05 8.74646 0.0996214 8.52442 0.273899 8.3695L9.45762 0.206198ZM6.12239 18.367V14.0817C6.12239 11.8962 7.81441 10.2041 9.99996 10.2041C12.1855 10.2041 13.8775 11.8962 13.8775 14.0817V18.3674H18.3673V9.34622L9.99996 1.90854L1.63257 9.34622V18.3674L6.12239 18.367Z" fill="#868E96"/>
</svg>
