<svg width="18" height="18" viewBox="0 0 18 18" fill="none" xmlns="http://www.w3.org/2000/svg">
<g id="icon_add_circle">
<g id="vector">
<path d="M8.99973 5.04173C9.2682 5.04173 9.48584 5.25937 9.48584 5.52785V8.51396H12.472C12.7404 8.51396 12.9581 8.7316 12.9581 9.00007C12.9581 9.26854 12.7404 9.48618 12.472 9.48618H9.48584V12.4723C9.48584 12.7408 9.2682 12.9584 8.99973 12.9584C8.73126 12.9584 8.51362 12.7408 8.51362 12.4723V9.48618H5.52751C5.25904 9.48618 5.0414 9.26854 5.0414 9.00007C5.0414 8.7316 5.25904 8.51396 5.52751 8.51396H8.51362V5.52785C8.51362 5.25937 8.73126 5.04173 8.99973 5.04173Z" fill="#0077E4"/>
<path fill-rule="evenodd" clip-rule="evenodd" d="M9 1.5C4.85786 1.5 1.5 4.85786 1.5 9C1.5 13.1421 4.85786 16.5 9 16.5C13.1421 16.5 16.5 13.1421 16.5 9C16.5 4.85786 13.1421 1.5 9 1.5ZM2.61111 9C2.61111 5.47151 5.47151 2.61111 9 2.61111C12.5285 2.61111 15.3889 5.47151 15.3889 9C15.3889 12.5285 12.5285 15.3889 9 15.3889C5.47151 15.3889 2.61111 12.5285 2.61111 9Z" fill="#0077E4"/>
<path d="M8.99973 5.04173C9.2682 5.04173 9.48584 5.25937 9.48584 5.52785V8.51396H12.472C12.7404 8.51396 12.9581 8.7316 12.9581 9.00007C12.9581 9.26854 12.7404 9.48618 12.472 9.48618H9.48584V12.4723C9.48584 12.7408 9.2682 12.9584 8.99973 12.9584C8.73126 12.9584 8.51362 12.7408 8.51362 12.4723V9.48618H5.52751C5.25904 9.48618 5.0414 9.26854 5.0414 9.00007C5.0414 8.7316 5.25904 8.51396 5.52751 8.51396H8.51362V5.52785C8.51362 5.25937 8.73126 5.04173 8.99973 5.04173Z" stroke="#0077E4" stroke-width="0.4" stroke-miterlimit="10" stroke-linecap="round" stroke-linejoin="round"/>
<path fill-rule="evenodd" clip-rule="evenodd" d="M9 1.5C4.85786 1.5 1.5 4.85786 1.5 9C1.5 13.1421 4.85786 16.5 9 16.5C13.1421 16.5 16.5 13.1421 16.5 9C16.5 4.85786 13.1421 1.5 9 1.5ZM2.61111 9C2.61111 5.47151 5.47151 2.61111 9 2.61111C12.5285 2.61111 15.3889 5.47151 15.3889 9C15.3889 12.5285 12.5285 15.3889 9 15.3889C5.47151 15.3889 2.61111 12.5285 2.61111 9Z" stroke="#0077E4" stroke-width="0.4" stroke-miterlimit="10" stroke-linecap="round" stroke-linejoin="round"/>
</g>
</g>
</svg>
