<svg width="24" height="24" viewBox="0 0 24 24" fill="none" xmlns="http://www.w3.org/2000/svg">
<path fill-rule="evenodd" clip-rule="evenodd" d="M1.2002 9.4998C1.2002 5.40202 5.33243 2.2998 10.0002 2.2998C12.6175 2.2998 15.0664 3.27514 16.7129 4.85443C20.0862 5.74204 22.8002 8.35491 22.8002 11.7001C22.8002 14.1966 21.3036 16.5331 19.0558 17.8513C19.4538 18.6436 19.8066 19.2126 20.071 19.5956C20.2387 19.8383 20.371 20.0066 20.457 20.1098L20.5694 20.2379C20.7988 20.4701 20.8642 20.8187 20.7341 21.1185C20.6034 21.4198 20.3018 21.6106 19.9736 21.5997L19.9703 21.5996L19.7929 21.5872C19.6888 21.5778 19.5426 21.5612 19.3604 21.5326C18.9962 21.4754 18.4865 21.3695 17.8799 21.1741C16.7238 20.8015 15.2143 20.1029 13.6939 18.7961C12.0073 18.7511 10.4574 18.3351 9.11617 17.5993C8.01209 18.3358 6.96232 18.7714 6.10507 19.0286C5.49591 19.2113 4.98392 19.304 4.61784 19.3511C4.4347 19.3746 4.2877 19.3868 4.18287 19.3931L4.0002 19.3998C3.66805 19.3998 3.37046 19.1946 3.25242 18.8841C3.13542 18.5764 3.21896 18.2287 3.46221 18.0077C3.46391 18.0061 3.46832 18.0019 3.47533 17.9949C3.49107 17.9791 3.51993 17.9493 3.56053 17.9037C3.64171 17.8126 3.77007 17.6579 3.93456 17.4253C4.19705 17.0542 4.55203 16.4841 4.95419 15.6566C2.70112 14.3394 1.2002 11.9998 1.2002 9.4998ZM10.9008 16.6612C11.8347 17.0107 12.8745 17.2001 14.0002 17.2001C14.1979 17.2001 14.3885 17.2733 14.5354 17.4055C15.8517 18.5901 17.1619 19.2347 18.1742 19.5855C17.8987 19.1116 17.5931 18.5319 17.273 17.8334C17.0889 17.4318 17.2653 16.957 17.6669 16.7729C19.8232 15.7846 21.2002 13.7449 21.2002 11.7001C21.2002 9.92986 20.1143 8.2941 18.3645 7.254C18.6463 7.95544 18.8002 8.70909 18.8002 9.4998C18.8002 13.3318 15.1866 16.2932 10.9008 16.6612ZM5.81855 17.4421C6.09846 16.9587 6.40839 16.3587 6.73255 15.622C6.90857 15.2219 6.73094 14.7546 6.33362 14.5725C4.17731 13.5842 2.80029 11.5446 2.80029 9.49978C2.80029 6.59757 5.86806 3.89978 10.0003 3.89978C14.1325 3.89978 17.2003 6.59757 17.2003 9.49978C17.2003 12.402 14.1325 15.0998 10.0003 15.0998C9.80266 15.0998 9.61202 15.1729 9.46512 15.3051C8.14316 16.4949 6.82863 17.1165 5.81855 17.4421Z" fill="#212124"/>
</svg>
