<svg xmlns="http://www.w3.org/2000/svg" width="24" height="24" viewBox="0 0 24 24" fill="none">
  <path d="M4.25806 18.4966C3.91416 18.8405 3.91416 19.398 4.25806 19.7419C4.60195 20.0858 5.15952 20.0858 5.50342 19.7419L12 13.2454L18.4966 19.742C18.8405 20.0859 19.398 20.0859 19.7419 19.742C20.0858 19.3981 20.0858 18.8405 19.7419 18.4966L13.2454 12L19.7421 5.50329C20.086 5.15939 20.086 4.60182 19.7421 4.25792C19.3982 3.91403 18.8406 3.91403 18.4967 4.25792L12 10.7546L5.50329 4.25794C5.15939 3.91404 4.60182 3.91404 4.25792 4.25794C3.91403 4.60183 3.91403 5.1594 4.25792 5.5033L10.7546 12L4.25806 18.4966Z" fill="#212529"/>
</svg>