<svg xmlns="http://www.w3.org/2000/svg" width="14" height="14" viewBox="0 0 14 14" fill="none">
  <path fill-rule="evenodd" clip-rule="evenodd" d="M2.94308 2.94308C3.11394 2.77223 3.39095 2.77223 3.5618 2.94308L7.00014 6.38142L10.4385 2.94308C10.6093 2.77223 10.8863 2.77223 11.0572 2.94308C11.228 3.11394 11.228 3.39095 11.0572 3.5618L7.61885 7.00014L11.0572 10.4385C11.228 10.6093 11.228 10.8863 11.0572 11.0572C10.8863 11.228 10.6093 11.228 10.4385 11.0572L7.00014 7.61886L3.5618 11.0572C3.39095 11.228 3.11394 11.228 2.94308 11.0572C2.77223 10.8863 2.77223 10.6093 2.94308 10.4385L6.38142 7.00014L2.94308 3.5618C2.77223 3.39095 2.77223 3.11394 2.94308 2.94308Z" fill="#495057"/>
</svg>