<svg width="24" height="24" viewBox="0 0 24 24" fill="none" xmlns="http://www.w3.org/2000/svg">
<g id="icon_home">
<path id="vector" fill-rule="evenodd" clip-rule="evenodd" d="M11.4576 2.2062C11.7669 1.93127 12.233 1.93127 12.5423 2.2062L21.726 10.3695C21.9003 10.5244 22 10.7465 22 10.9796V21.1838C22 21.6346 21.6345 22.0001 21.1837 22.0001H15.0612C14.6104 22.0001 14.2449 21.6346 14.2449 21.1838V16.0817C14.2449 14.7978 13.2838 13.8368 12 13.8368C10.7161 13.8368 9.75505 14.7978 9.75505 16.0817V21.1837C9.75505 21.6346 9.38957 22.0001 8.93872 22.0001H2.81624C2.36539 22.0001 1.99991 21.6346 1.99991 21.1838V10.9796C1.99991 10.7465 2.09962 10.5244 2.2739 10.3695L11.4576 2.2062ZM8.12239 20.367V16.0817C8.12239 13.8962 9.81441 12.2041 12 12.2041C14.1855 12.2041 15.8775 13.8962 15.8775 16.0817V20.3674H20.3673V11.3462L12 3.90854L3.63257 11.3462V20.3674L8.12239 20.367Z" fill="#212124"/>
</g>
</svg>