<svg width="18" height="18" viewBox="0 0 18 18" fill="none" xmlns="http://www.w3.org/2000/svg">
<g id="icon_list_select">
<g id="vector">
<path fill-rule="evenodd" clip-rule="evenodd" d="M2.6249 2.7749C2.29353 2.7749 2.0249 3.04353 2.0249 3.3749C2.0249 3.70627 2.29353 3.9749 2.6249 3.9749H13.1249C13.4563 3.9749 13.7249 3.70627 13.7249 3.3749C13.7249 3.04353 13.4563 2.7749 13.1249 2.7749H2.6249ZM2.6249 7.2749C2.29353 7.2749 2.0249 7.54353 2.0249 7.8749C2.0249 8.20627 2.29353 8.4749 2.6249 8.4749H13.1249C13.4563 8.4749 13.7249 8.20627 13.7249 7.8749C13.7249 7.54353 13.4563 7.2749 13.1249 7.2749H2.6249ZM2.0249 12.3749C2.0249 12.0435 2.29353 11.7749 2.6249 11.7749H7.1249C7.45627 11.7749 7.7249 12.0435 7.7249 12.3749C7.7249 12.7063 7.45627 12.9749 7.1249 12.9749H2.6249C2.29353 12.9749 2.0249 12.7063 2.0249 12.3749ZM15.8575 10.4815C16.0544 10.215 15.998 9.8393 15.7315 9.64238C15.465 9.44546 15.0893 9.50187 14.8924 9.76838L12.0155 13.6618L10.5808 11.9849C10.3654 11.7331 9.98665 11.7036 9.73486 11.919C9.48306 12.1345 9.45358 12.5132 9.669 12.765L11.594 15.015C11.7129 15.1539 11.8886 15.2311 12.0713 15.2246C12.254 15.218 12.4238 15.1286 12.5325 14.9815L15.8575 10.4815Z" fill="#0077E4"/>
<path d="M15.7315 9.64238L15.6126 9.80323L15.6126 9.80323L15.7315 9.64238ZM15.8575 10.4815L16.0183 10.6004L16.0183 10.6004L15.8575 10.4815ZM14.8924 9.76838L14.7315 9.64953L14.7315 9.64953L14.8924 9.76838ZM12.0155 13.6618L11.8636 13.7918C11.9032 13.8381 11.9618 13.8639 12.0227 13.8617C12.0836 13.8595 12.1402 13.8297 12.1764 13.7807L12.0155 13.6618ZM10.5808 11.9849L10.4289 12.1149L10.4289 12.1149L10.5808 11.9849ZM9.73486 11.919L9.86488 12.071L9.86488 12.071L9.73486 11.919ZM9.669 12.765L9.51703 12.895L9.51703 12.895L9.669 12.765ZM11.594 15.015L11.746 14.885L11.746 14.885L11.594 15.015ZM12.0713 15.2246L12.0785 15.4244L12.0785 15.4244L12.0713 15.2246ZM12.5325 14.9815L12.3716 14.8626L12.3716 14.8626L12.5325 14.9815ZM2.2249 3.3749C2.2249 3.15399 2.40399 2.9749 2.6249 2.9749V2.5749C2.18307 2.5749 1.8249 2.93307 1.8249 3.3749H2.2249ZM2.6249 3.7749C2.40399 3.7749 2.2249 3.59582 2.2249 3.3749H1.8249C1.8249 3.81673 2.18307 4.1749 2.6249 4.1749V3.7749ZM13.1249 3.7749H2.6249V4.1749H13.1249V3.7749ZM13.5249 3.3749C13.5249 3.59582 13.3458 3.7749 13.1249 3.7749V4.1749C13.5667 4.1749 13.9249 3.81673 13.9249 3.3749H13.5249ZM13.1249 2.9749C13.3458 2.9749 13.5249 3.15399 13.5249 3.3749H13.9249C13.9249 2.93307 13.5667 2.5749 13.1249 2.5749V2.9749ZM2.6249 2.9749H13.1249V2.5749H2.6249V2.9749ZM2.2249 7.8749C2.2249 7.65399 2.40399 7.4749 2.6249 7.4749V7.0749C2.18307 7.0749 1.8249 7.43307 1.8249 7.8749H2.2249ZM2.6249 8.2749C2.40399 8.2749 2.2249 8.09582 2.2249 7.8749H1.8249C1.8249 8.31673 2.18307 8.6749 2.6249 8.6749V8.2749ZM13.1249 8.2749H2.6249V8.6749H13.1249V8.2749ZM13.5249 7.8749C13.5249 8.09582 13.3458 8.2749 13.1249 8.2749V8.6749C13.5667 8.6749 13.9249 8.31673 13.9249 7.8749H13.5249ZM13.1249 7.4749C13.3458 7.4749 13.5249 7.65399 13.5249 7.8749H13.9249C13.9249 7.43307 13.5667 7.0749 13.1249 7.0749V7.4749ZM2.6249 7.4749H13.1249V7.0749H2.6249V7.4749ZM2.6249 11.5749C2.18307 11.5749 1.8249 11.9331 1.8249 12.3749H2.2249C2.2249 12.154 2.40399 11.9749 2.6249 11.9749V11.5749ZM7.1249 11.5749H2.6249V11.9749H7.1249V11.5749ZM7.9249 12.3749C7.9249 11.9331 7.56673 11.5749 7.1249 11.5749V11.9749C7.34582 11.9749 7.5249 12.154 7.5249 12.3749H7.9249ZM7.1249 13.1749C7.56673 13.1749 7.9249 12.8167 7.9249 12.3749H7.5249C7.5249 12.5958 7.34582 12.7749 7.1249 12.7749V13.1749ZM2.6249 13.1749H7.1249V12.7749H2.6249V13.1749ZM1.8249 12.3749C1.8249 12.8167 2.18307 13.1749 2.6249 13.1749V12.7749C2.40399 12.7749 2.2249 12.5958 2.2249 12.3749H1.8249ZM15.6126 9.80323C15.7903 9.93451 15.8279 10.185 15.6966 10.3626L16.0183 10.6004C16.2809 10.245 16.2057 9.74409 15.8503 9.48152L15.6126 9.80323ZM15.0532 9.88723C15.1845 9.70956 15.4349 9.67195 15.6126 9.80323L15.8503 9.48153C15.495 9.21896 14.9941 9.29418 14.7315 9.64953L15.0532 9.88723ZM12.1764 13.7807L15.0532 9.88723L14.7315 9.64953L11.8547 13.543L12.1764 13.7807ZM10.4289 12.1149L11.8636 13.7918L12.1675 13.5318L10.7328 11.8549L10.4289 12.1149ZM9.86488 12.071C10.0327 11.9274 10.2852 11.947 10.4289 12.1149L10.7328 11.8549C10.4456 11.5191 9.94056 11.4798 9.60484 11.7671L9.86488 12.071ZM9.82097 12.635C9.67736 12.4671 9.69701 12.2146 9.86488 12.071L9.60484 11.7671C9.26911 12.0543 9.2298 12.5593 9.51703 12.895L9.82097 12.635ZM11.746 14.885L9.82097 12.635L9.51703 12.895L11.442 15.145L11.746 14.885ZM12.0642 15.0247C11.9424 15.029 11.8252 14.9776 11.746 14.885L11.442 15.145C11.6005 15.3303 11.8348 15.4331 12.0785 15.4244L12.0642 15.0247ZM12.3716 14.8626C12.2992 14.9607 12.186 15.0203 12.0642 15.0247L12.0785 15.4244C12.3221 15.4157 12.5485 15.2964 12.6933 15.1004L12.3716 14.8626ZM15.6966 10.3626L12.3716 14.8626L12.6933 15.1004L16.0183 10.6004L15.6966 10.3626Z" fill="#0077E4"/>
</g>
</g>
</svg>
