<svg width="24" height="24" viewBox="0 0 24 24" fill="none" xmlns="http://www.w3.org/2000/svg">
<path fill-rule="evenodd" clip-rule="evenodd" d="M9.2 15.0002C9.2 13.4538 10.4536 12.2002 12 12.2002C13.5464 12.2002 14.8 13.4538 14.8 15.0002C14.8 16.5466 13.5464 17.8002 12 17.8002C10.4536 17.8002 9.2 16.5466 9.2 15.0002ZM12 13.8002C11.3373 13.8002 10.8 14.3375 10.8 15.0002C10.8 15.6629 11.3373 16.2002 12 16.2002C12.6627 16.2002 13.2 15.6629 13.2 15.0002C13.2 14.3375 12.6627 13.8002 12 13.8002Z" fill="#212124"/>
<path fill-rule="evenodd" clip-rule="evenodd" d="M18 10.6002H6C5.77909 10.6002 5.6 10.7793 5.6 11.0002V20.0002C5.6 20.2211 5.77909 20.4002 6 20.4002H18C18.2209 20.4002 18.4 20.2211 18.4 20.0002V11.0002C18.4 10.7793 18.2209 10.6002 18 10.6002ZM6 9.0002C4.89543 9.0002 4 9.89563 4 11.0002V20.0002C4 21.1048 4.89543 22.0002 6 22.0002H18C19.1046 22.0002 20 21.1048 20 20.0002V11.0002C20 9.89563 19.1046 9.0002 18 9.0002H6Z" fill="#212124"/>
<path d="M15.15 9.00024V6.9502C15.15 5.2105 13.7397 3.8002 12 3.8002C10.2603 3.8002 8.85 5.2105 8.85 6.9502V9.00024H7.25V6.9502C7.25 4.32684 9.37665 2.2002 12 2.2002C14.6234 2.2002 16.75 4.32684 16.75 6.9502V9.00024H15.15Z" fill="#212124"/>
</svg>
