<svg width="24" height="24" viewBox="0 0 24 24" fill="none" xmlns="http://www.w3.org/2000/svg">
<path fill-rule="evenodd" clip-rule="evenodd" d="M2.2002 5.0002C2.2002 3.4538 3.4538 2.2002 5.0002 2.2002H19.0002C20.5466 2.2002 21.8002 3.4538 21.8002 5.0002V19.0002C21.8002 20.5466 20.5466 21.8002 19.0002 21.8002H5.0002C3.4538 21.8002 2.2002 20.5466 2.2002 19.0002V5.0002ZM5.0002 3.8002C4.33745 3.8002 3.8002 4.33745 3.8002 5.0002V19.0002C3.8002 19.6629 4.33745 20.2002 5.0002 20.2002H19.0002C19.6629 20.2002 20.2002 19.6629 20.2002 19.0002V5.0002C20.2002 4.33745 19.6629 3.8002 19.0002 3.8002H5.0002Z" fill="#212124"/>
<path fill-rule="evenodd" clip-rule="evenodd" d="M7.2002 8.0002C7.2002 7.55837 7.55837 7.2002 8.0002 7.2002H16.0002C16.442 7.2002 16.8002 7.55837 16.8002 8.0002C16.8002 8.44202 16.442 8.8002 16.0002 8.8002H8.0002C7.55837 8.8002 7.2002 8.44202 7.2002 8.0002Z" fill="#212124"/>
<path fill-rule="evenodd" clip-rule="evenodd" d="M7.2002 12.0002C7.2002 11.5584 7.55837 11.2002 8.0002 11.2002H16.0002C16.442 11.2002 16.8002 11.5584 16.8002 12.0002C16.8002 12.442 16.442 12.8002 16.0002 12.8002H8.0002C7.55837 12.8002 7.2002 12.442 7.2002 12.0002Z" fill="#212124"/>
<path fill-rule="evenodd" clip-rule="evenodd" d="M7.2002 16.0002C7.2002 15.5584 7.55837 15.2002 8.0002 15.2002H16.0002C16.442 15.2002 16.8002 15.5584 16.8002 16.0002C16.8002 16.442 16.442 16.8002 16.0002 16.8002H8.0002C7.55837 16.8002 7.2002 16.442 7.2002 16.0002Z" fill="#212124"/>
</svg>
