<svg xmlns="http://www.w3.org/2000/svg" width="18" height="19" viewBox="0 0 18 19" fill="none">
  <path d="M9.82759 2.76216C9.82759 2.30509 9.45706 1.93457 9 1.93457C8.54294 1.93457 8.17241 2.30509 8.17241 2.76216V8.60698H2.32759C1.87052 8.60698 1.5 8.97751 1.5 9.43457C1.5 9.89163 1.87052 10.2622 2.32759 10.2622H8.17241V16.107C8.17241 16.564 8.54294 16.9346 9 16.9346C9.45706 16.9346 9.82759 16.564 9.82759 16.107V10.2622H15.6724C16.1295 10.2622 16.5 9.89163 16.5 9.43457C16.5 8.97751 16.1295 8.60698 15.6724 8.60698H9.82759V2.76216Z" fill="#0077E4" stroke="#0077E4" stroke-width="0.4" stroke-miterlimit="10" stroke-linecap="round" stroke-linejoin="round"/>
</svg>