<svg xmlns="http://www.w3.org/2000/svg" width="18" height="19" viewBox="0 0 18 19" fill="none">
  <path d="M11.2727 12.5682C11.0531 12.3486 11.0531 11.9924 11.2727 11.7727C11.4924 11.5531 11.8486 11.5531 12.0682 11.7727L15.5154 15.2199C15.7351 15.4396 15.7351 15.7957 15.5154 16.0154C15.2957 16.2351 14.9396 16.2351 14.7199 16.0154L11.2727 12.5682Z" fill="#212529"/>
  <path fill-rule="evenodd" clip-rule="evenodd" d="M8.0625 12.5C10.4442 12.5 12.375 10.5692 12.375 8.1875C12.375 5.80577 10.4442 3.875 8.0625 3.875C5.68077 3.875 3.75 5.80577 3.75 8.1875C3.75 10.5692 5.68077 12.5 8.0625 12.5ZM8.0625 13.625C11.0655 13.625 13.5 11.1905 13.5 8.1875C13.5 5.18445 11.0655 2.75 8.0625 2.75C5.05945 2.75 2.625 5.18445 2.625 8.1875C2.625 11.1905 5.05945 13.625 8.0625 13.625Z" fill="#212529"/>
</svg>