<svg xmlns="http://www.w3.org/2000/svg" width="20" height="21" viewBox="0 0 20 21" fill="none">
  <path fill-rule="evenodd" clip-rule="evenodd" d="M4.16634 4.8335C4.53453 4.8335 4.83301 5.13197 4.83301 5.50016V15.5002C4.83301 16.5127 5.65382 17.3335 6.66634 17.3335H13.333C14.3455 17.3335 15.1663 16.5127 15.1663 15.5002V5.50016C15.1663 5.13197 15.4648 4.8335 15.833 4.8335C16.2012 4.8335 16.4997 5.13197 16.4997 5.50016V15.5002C16.4997 17.2491 15.0819 18.6668 13.333 18.6668H6.66634C4.91744 18.6668 3.49967 17.2491 3.49967 15.5002V5.50016C3.49967 5.13197 3.79815 4.8335 4.16634 4.8335Z" fill="#868E96"/>
  <path fill-rule="evenodd" clip-rule="evenodd" d="M7.08301 9.00016C7.4512 9.00016 7.74967 9.29864 7.74967 9.66683V13.8335C7.74967 14.2017 7.4512 14.5002 7.08301 14.5002C6.71482 14.5002 6.41634 14.2017 6.41634 13.8335V9.66683C6.41634 9.29864 6.71482 9.00016 7.08301 9.00016Z" fill="#868E96"/>
  <path fill-rule="evenodd" clip-rule="evenodd" d="M9.99967 9.00016C10.3679 9.00016 10.6663 9.29864 10.6663 9.66683V13.8335C10.6663 14.2017 10.3679 14.5002 9.99967 14.5002C9.63148 14.5002 9.33301 14.2017 9.33301 13.8335V9.66683C9.33301 9.29864 9.63148 9.00016 9.99967 9.00016Z" fill="#868E96"/>
  <path fill-rule="evenodd" clip-rule="evenodd" d="M12.9163 9.00016C13.2845 9.00016 13.583 9.29864 13.583 9.66683V13.8335C13.583 14.2017 13.2845 14.5002 12.9163 14.5002C12.5482 14.5002 12.2497 14.2017 12.2497 13.8335V9.66683C12.2497 9.29864 12.5482 9.00016 12.9163 9.00016Z" fill="#868E96"/>
  <path fill-rule="evenodd" clip-rule="evenodd" d="M1.83301 5.50016C1.83301 5.13197 2.13148 4.8335 2.49967 4.8335H17.4997C17.8679 4.8335 18.1663 5.13197 18.1663 5.50016C18.1663 5.86835 17.8679 6.16683 17.4997 6.16683H2.49967C2.13148 6.16683 1.83301 5.86835 1.83301 5.50016Z" fill="#868E96"/>
  <path fill-rule="evenodd" clip-rule="evenodd" d="M6.86722 2.78934C6.95797 2.51712 7.21273 2.3335 7.49968 2.3335H12.4997C12.7866 2.3335 13.0414 2.51712 13.1321 2.78934L13.9655 5.28934C14.0332 5.49264 13.9991 5.71612 13.8738 5.88997C13.7485 6.06382 13.5473 6.16683 13.333 6.16683H6.66635C6.45205 6.16683 6.25082 6.06382 6.12552 5.88997C6.00022 5.71612 5.96612 5.49264 6.03389 5.28934L6.86722 2.78934ZM7.98019 3.66683L7.5913 4.8335H12.4081L12.0192 3.66683H7.98019Z" fill="#868E96"/>
</svg>